<svg xmlns="http://www.w3.org/2000/svg" xmlns:xlink="http://www.w3.org/1999/xlink" width="1173" zoomAndPan="magnify" viewBox="0 0 879.75 655.499985" height="874" preserveAspectRatio="xMidYMid meet" version="1.2"><defs/><g id="80e75f339b"><g style="fill:#ffffff;fill-opacity:1;"><g transform="translate(60.91987, 406.990702)"><path style="stroke:none" d="M 7.484375 -135.40625 C 12.679688 -138.019531 17.195312 -139.726562 21.03125 -140.53125 C 24.875 -141.332031 29.144531 -141.914062 33.84375 -142.28125 C 34.34375 -142.28125 35.578125 -142.367188 37.546875 -142.546875 C 39.515625 -142.722656 41.15625 -143.140625 42.46875 -143.796875 C 46.25 -145.703125 47.382812 -149.273438 45.875 -154.515625 L 48.859375 -156.03125 L 66.171875 -121.609375 L 63.1875 -120.09375 C 59.53125 -125.382812 55.007812 -129.332031 49.625 -131.9375 C 44.25 -134.550781 38.703125 -135.828125 32.984375 -135.765625 C 27.273438 -135.703125 22.023438 -134.460938 17.234375 -132.046875 C 10.453125 -128.640625 5.550781 -123.644531 2.53125 -117.0625 C -0.476562 -110.488281 -1.492188 -102.945312 -0.515625 -94.4375 C 0.453125 -85.925781 3.222656 -77.128906 7.796875 -68.046875 C 15.171875 -53.378906 23.84375 -43.332031 33.8125 -37.90625 C 43.78125 -32.488281 53.859375 -32.335938 64.046875 -37.453125 C 70.535156 -40.710938 75.59375 -45.191406 79.21875 -50.890625 C 82.851562 -56.597656 85.785156 -63.945312 88.015625 -72.9375 L 92.15625 -64.71875 C 89.53125 -56.019531 85.859375 -48.828125 81.140625 -43.140625 C 76.429688 -37.460938 70.1875 -32.671875 62.40625 -28.765625 C 51.4375 -23.242188 40.679688 -20.707031 30.140625 -21.15625 C 19.597656 -21.601562 10.125 -24.648438 1.71875 -30.296875 C -6.6875 -35.941406 -13.296875 -43.5625 -18.109375 -53.15625 C -23.078125 -63.019531 -25.269531 -73.410156 -24.6875 -84.328125 C -24.113281 -95.253906 -21 -105.296875 -15.34375 -114.453125 C -9.695312 -123.609375 -2.085938 -130.59375 7.484375 -135.40625 Z M 7.484375 -135.40625 "/></g></g><g style="fill:#ffffff;fill-opacity:1;"><g transform="translate(165.088478, 356.180782)"><path style="stroke:none" d="M 29.046875 -22.8125 C 30.023438 -20.195312 31.375 -18.492188 33.09375 -17.703125 C 34.820312 -16.921875 37.046875 -17.039062 39.765625 -18.0625 L 40.8125 -15.234375 L 1.890625 -0.703125 L 0.84375 -3.53125 C 4.082031 -4.738281 6.222656 -6.34375 7.265625 -8.34375 C 8.304688 -10.34375 8.28125 -12.8125 7.1875 -15.75 L -24.140625 -99.71875 C -25.472656 -103.28125 -27.097656 -105.472656 -29.015625 -106.296875 C -30.941406 -107.117188 -33.703125 -106.921875 -37.296875 -105.703125 L -38.34375 -108.53125 L -7.265625 -120.125 Z M 29.046875 -22.8125 "/></g></g><g style="fill:#ffffff;fill-opacity:1;"><g transform="translate(204.341638, 340.860715)"><path style="stroke:none" d="M 15.4375 -87.21875 C 21.976562 -89.09375 27.953125 -89 33.359375 -86.9375 C 38.773438 -84.882812 43.351562 -81.578125 47.09375 -77.015625 C 50.84375 -72.460938 53.578125 -67.410156 55.296875 -61.859375 L 56.078125 -59.109375 L 13.71875 -46.96875 C 16.914062 -38.25 21.3125 -31.726562 26.90625 -27.40625 C 32.507812 -23.082031 38.316406 -21.785156 44.328125 -23.515625 C 48.191406 -24.617188 51.191406 -26.609375 53.328125 -29.484375 C 55.460938 -32.367188 57.085938 -36.125 58.203125 -40.75 L 61.625 -39.796875 C 60.175781 -31.023438 57.457031 -24.0625 53.46875 -18.90625 C 49.488281 -13.757812 44.066406 -10.203125 37.203125 -8.234375 C 30.328125 -6.265625 23.960938 -6.269531 18.109375 -8.25 C 12.253906 -10.226562 7.207031 -13.742188 2.96875 -18.796875 C -1.269531 -23.859375 -4.421875 -29.988281 -6.484375 -37.1875 C -8.546875 -44.375 -8.957031 -51.484375 -7.71875 -58.515625 C -6.476562 -65.546875 -3.816406 -71.65625 0.265625 -76.84375 C 4.359375 -82.03125 9.414062 -85.488281 15.4375 -87.21875 Z M 33.75 -62.828125 C 31.5625 -70.453125 29.113281 -75.851562 26.40625 -79.03125 C 23.695312 -82.207031 20.519531 -83.273438 16.875 -82.234375 C 13.007812 -81.117188 10.6875 -77.863281 9.90625 -72.46875 C 9.125 -67.070312 9.625 -61.257812 11.40625 -55.03125 L 12.203125 -52.296875 L 34.90625 -58.8125 Z M 33.75 -62.828125 "/></g></g><g style="fill:#ffffff;fill-opacity:1;"><g transform="translate(270.607049, 321.296266)"><path style="stroke:none" d="M 27.953125 -85.796875 C 37.410156 -87.484375 44.675781 -86.789062 49.75 -83.71875 C 54.832031 -80.65625 57.90625 -76.15625 58.96875 -70.21875 L 66.21875 -29.484375 C 67.289062 -23.429688 69.367188 -20.679688 72.453125 -21.234375 C 73.328125 -21.390625 74.019531 -21.765625 74.53125 -22.359375 C 75.050781 -22.960938 75.585938 -23.945312 76.140625 -25.3125 L 77.90625 -24.078125 C 77.03125 -20.066406 75.132812 -16.664062 72.21875 -13.875 C 69.3125 -11.082031 65.828125 -9.328125 61.765625 -8.609375 C 57.585938 -7.867188 54.019531 -8.3125 51.0625 -9.9375 C 48.101562 -11.5625 46.039062 -14.375 44.875 -18.375 C 44.300781 -17.8125 43.453125 -16.863281 42.328125 -15.53125 C 39.046875 -11.65625 35.910156 -8.539062 32.921875 -6.1875 C 29.941406 -3.84375 26.304688 -2.289062 22.015625 -1.53125 C 17.722656 -0.769531 13.847656 -1.664062 10.390625 -4.21875 C 6.929688 -6.78125 4.8125 -10.257812 4.03125 -14.65625 C 3.007812 -20.382812 4.597656 -25.945312 8.796875 -31.34375 C 12.992188 -36.738281 17.816406 -41.34375 23.265625 -45.15625 L 38.1875 -55.984375 L 35.515625 -70.984375 C 35.023438 -73.734375 33.753906 -75.914062 31.703125 -77.53125 C 29.660156 -79.15625 26.828125 -79.644531 23.203125 -79 C 20.003906 -78.4375 17.453125 -77.300781 15.546875 -75.59375 C 13.640625 -73.894531 12.851562 -72.113281 13.1875 -70.25 C 13.3125 -69.59375 13.625 -68.96875 14.125 -68.375 C 14.625 -67.78125 15.207031 -67.203125 15.875 -66.640625 C 17.070312 -65.609375 18.046875 -64.585938 18.796875 -63.578125 C 19.546875 -62.578125 20.046875 -61.363281 20.296875 -59.9375 C 20.765625 -57.300781 20.15625 -54.976562 18.46875 -52.96875 C 16.789062 -50.96875 14.359375 -49.6875 11.171875 -49.125 C 7.648438 -48.5 4.625 -48.921875 2.09375 -50.390625 C -0.4375 -51.867188 -1.976562 -54.148438 -2.53125 -57.234375 C -3.238281 -61.191406 -2.332031 -65.179688 0.1875 -69.203125 C 2.707031 -73.222656 6.425781 -76.71875 11.34375 -79.6875 C 16.257812 -82.664062 21.796875 -84.703125 27.953125 -85.796875 Z M 25.1875 -25.75 C 25.65625 -23.113281 26.78125 -21.101562 28.5625 -19.71875 C 30.34375 -18.332031 32.390625 -17.84375 34.703125 -18.25 C 36.566406 -18.582031 38.179688 -19.210938 39.546875 -20.140625 C 40.921875 -21.066406 42.359375 -22.398438 43.859375 -24.140625 L 39.21875 -50.203125 C 28.414062 -42.046875 23.738281 -33.894531 25.1875 -25.75 Z M 25.1875 -25.75 "/></g></g><g style="fill:#ffffff;fill-opacity:1;"><g transform="translate(349.085338, 307.500106)"><path style="stroke:none" d="M 45.515625 -83.421875 C 48.179688 -83.628906 50.429688 -82.769531 52.265625 -80.84375 C 54.097656 -78.914062 55.140625 -76.335938 55.390625 -73.109375 C 55.671875 -69.660156 55.054688 -66.8125 53.546875 -64.5625 C 52.046875 -62.3125 49.847656 -61.070312 46.953125 -60.84375 C 45.617188 -60.738281 44.425781 -60.925781 43.375 -61.40625 C 42.332031 -61.882812 41.046875 -62.566406 39.515625 -63.453125 C 37.296875 -64.742188 35.679688 -65.347656 34.671875 -65.265625 C 32.898438 -65.128906 31.515625 -63.5625 30.515625 -60.5625 C 29.515625 -57.5625 29.15625 -54.222656 29.4375 -50.546875 L 32.1875 -15.8125 C 32.476562 -12.132812 33.40625 -9.570312 34.96875 -8.125 C 36.539062 -6.6875 39.222656 -6.117188 43.015625 -6.421875 L 43.25 -3.421875 L 1.84375 -0.140625 L 1.609375 -3.140625 C 7.285156 -3.585938 9.859375 -7.148438 9.328125 -13.828125 L 5.265625 -65.28125 C 4.742188 -71.84375 1.640625 -74.957031 -4.046875 -74.625 L -4.28125 -77.640625 L 27.109375 -80.125 L 28.203125 -66.25 L 28.53125 -66.28125 C 32.945312 -77.164062 38.609375 -82.878906 45.515625 -83.421875 Z M 45.515625 -83.421875 "/></g></g><g style="fill:#ffffff;fill-opacity:1;"><g transform="translate(407.186876, 298.441304)"><path style="stroke:none" d="M 56.53125 -108.28125 C 52.863281 -108.539062 50.300781 -108.25 48.84375 -107.40625 C 47.382812 -106.570312 46.566406 -104.925781 46.390625 -102.46875 C 46.304688 -101.25 46.46875 -99.644531 46.875 -97.65625 C 47.289062 -95.664062 47.90625 -93.347656 48.71875 -90.703125 L 66.796875 -31.953125 L 88.15625 -73.921875 L 83.3125 -90.5625 C 81.519531 -96.613281 79.476562 -100.867188 77.1875 -103.328125 C 74.894531 -105.796875 71.578125 -107.1875 67.234375 -107.5 L 67.453125 -110.515625 L 121.25 -106.625 L 121.03125 -103.609375 L 119.015625 -103.765625 C 115.117188 -104.046875 112.441406 -103.765625 110.984375 -102.921875 C 109.523438 -102.078125 108.722656 -100.648438 108.578125 -98.640625 C 108.484375 -97.304688 108.785156 -95.269531 109.484375 -92.53125 L 127.65625 -30.390625 L 151.203125 -81.625 C 153.609375 -87.039062 154.914062 -91.195312 155.125 -94.09375 C 155.457031 -98.769531 151.890625 -101.378906 144.421875 -101.921875 L 144.640625 -104.9375 L 171.890625 -102.96875 L 171.671875 -99.953125 C 169.753906 -99.753906 167.976562 -98.789062 166.34375 -97.0625 C 164.707031 -95.332031 162.757812 -92.085938 160.5 -87.328125 L 115.625 10.71875 L 112.78125 10.515625 L 90.5625 -65.34375 L 54.640625 6.3125 L 51.453125 6.078125 L 19.140625 -99.734375 C 17.679688 -104.421875 16.390625 -107.503906 15.265625 -108.984375 C 14.148438 -110.460938 12.367188 -111.347656 9.921875 -111.640625 L 10.140625 -114.65625 L 56.75 -111.296875 Z M 56.53125 -108.28125 "/></g></g><g style="fill:#ffffff;fill-opacity:1;"><g transform="translate(565.51882, 312.619995)"><path style="stroke:none" d="M 59.96875 -67.4375 C 69.300781 -65.1875 75.679688 -61.632812 79.109375 -56.78125 C 82.546875 -51.9375 83.5625 -46.582031 82.15625 -40.71875 L 72.484375 -0.484375 C 71.046875 5.492188 71.847656 8.847656 74.890625 9.578125 C 75.765625 9.785156 76.554688 9.710938 77.265625 9.359375 C 77.972656 9.003906 78.851562 8.328125 79.90625 7.328125 L 81.015625 9.15625 C 78.617188 12.476562 75.523438 14.832031 71.734375 16.21875 C 67.953125 17.601562 64.054688 17.8125 60.046875 16.84375 C 55.921875 15.851562 52.828125 14.019531 50.765625 11.34375 C 48.710938 8.664062 47.953125 5.265625 48.484375 1.140625 C 47.734375 1.421875 46.570312 1.945312 45 2.71875 C 40.445312 4.945312 36.332031 6.539062 32.65625 7.5 C 28.976562 8.457031 25.023438 8.425781 20.796875 7.40625 C 16.554688 6.382812 13.359375 4.007812 11.203125 0.28125 C 9.054688 -3.445312 8.503906 -7.484375 9.546875 -11.828125 C 10.910156 -17.472656 14.597656 -21.925781 20.609375 -25.1875 C 26.617188 -28.457031 32.882812 -30.742188 39.40625 -32.046875 L 57.40625 -36 L 60.96875 -50.8125 C 61.625 -53.53125 61.335938 -56.039062 60.109375 -58.34375 C 58.890625 -60.644531 56.488281 -62.226562 52.90625 -63.09375 C 49.757812 -63.851562 46.96875 -63.832031 44.53125 -63.03125 C 42.101562 -62.238281 40.664062 -60.921875 40.21875 -59.078125 C 40.0625 -58.429688 40.09375 -57.734375 40.3125 -56.984375 C 40.539062 -56.242188 40.851562 -55.484375 41.25 -54.703125 C 41.925781 -53.273438 42.40625 -51.953125 42.6875 -50.734375 C 42.96875 -49.515625 42.941406 -48.203125 42.609375 -46.796875 C 41.984375 -44.191406 40.492188 -42.304688 38.140625 -41.140625 C 35.796875 -39.984375 33.046875 -39.785156 29.890625 -40.546875 C 26.421875 -41.378906 23.820312 -42.976562 22.09375 -45.34375 C 20.375 -47.71875 19.878906 -50.421875 20.609375 -53.453125 C 21.546875 -57.367188 23.972656 -60.660156 27.890625 -63.328125 C 31.816406 -66.003906 36.625 -67.722656 42.3125 -68.484375 C 48 -69.242188 53.882812 -68.894531 59.96875 -67.4375 Z M 33.390625 -13.5 C 32.765625 -10.894531 32.988281 -8.601562 34.0625 -6.625 C 35.144531 -4.644531 36.828125 -3.378906 39.109375 -2.828125 C 40.953125 -2.390625 42.6875 -2.316406 44.3125 -2.609375 C 45.9375 -2.910156 47.785156 -3.554688 49.859375 -4.546875 L 56.03125 -30.296875 C 42.875 -27.140625 35.328125 -21.539062 33.390625 -13.5 Z M 33.390625 -13.5 "/></g></g><g style="fill:#ffffff;fill-opacity:1;"><g transform="translate(643.102277, 331.767825)"><path style="stroke:none" d="M 64.765625 -89.640625 L 67.46875 -88.71875 L 58.46875 -62.234375 L 75.28125 -56.53125 L 72.59375 -48.59375 L 55.78125 -54.296875 L 38.53125 -3.53125 C 37.851562 -1.519531 37.648438 0.472656 37.921875 2.453125 C 38.191406 4.429688 39.378906 5.78125 41.484375 6.5 C 45.085938 7.71875 49 6.269531 53.21875 2.15625 L 54.265625 5.34375 C 46.878906 13.207031 38.585938 15.578125 29.390625 12.453125 C 23.472656 10.441406 19.550781 7.046875 17.625 2.265625 C 15.707031 -2.503906 15.648438 -7.539062 17.453125 -12.84375 L 34.046875 -61.6875 L 25 -64.75 L 25.96875 -67.609375 C 32.269531 -69.472656 39.507812 -72.734375 47.6875 -77.390625 C 55.875 -82.046875 61.566406 -86.128906 64.765625 -89.640625 Z M 64.765625 -89.640625 "/></g></g><g style="fill:#ffffff;fill-opacity:1;"><g transform="translate(692.774172, 347.965135)"><path style="stroke:none" d="M 67.5 -57.328125 C 73.738281 -54.597656 78.285156 -50.71875 81.140625 -45.6875 C 83.992188 -40.664062 85.410156 -35.203125 85.390625 -29.296875 C 85.378906 -23.390625 84.265625 -17.757812 82.046875 -12.40625 L 80.90625 -9.78125 L 40.53125 -27.4375 C 37.414062 -18.675781 36.632812 -10.847656 38.1875 -3.953125 C 39.75 2.941406 43.398438 7.644531 49.140625 10.15625 C 52.816406 11.757812 56.394531 12.132812 59.875 11.28125 C 63.363281 10.425781 67.015625 8.578125 70.828125 5.734375 L 72.859375 8.625 C 66.140625 14.46875 59.601562 18.101562 53.25 19.53125 C 46.90625 20.957031 40.457031 20.238281 33.90625 17.375 C 27.363281 14.507812 22.460938 10.445312 19.203125 5.1875 C 15.953125 -0.0625 14.304688 -5.984375 14.265625 -12.578125 C 14.222656 -19.179688 15.703125 -25.914062 18.703125 -32.78125 C 21.703125 -39.632812 25.921875 -45.375 31.359375 -50 C 36.804688 -54.625 42.753906 -57.628906 49.203125 -59.015625 C 55.660156 -60.398438 61.757812 -59.835938 67.5 -57.328125 Z M 66.046875 -26.875 C 69.222656 -34.132812 70.78125 -39.851562 70.71875 -44.03125 C 70.65625 -48.207031 68.890625 -51.054688 65.421875 -52.578125 C 61.734375 -54.191406 57.867188 -53.164062 53.828125 -49.5 C 49.796875 -45.84375 46.484375 -41.046875 43.890625 -35.109375 L 42.75 -32.515625 L 64.375 -23.046875 Z M 66.046875 -26.875 "/></g></g><g style="fill:#ffffff;fill-opacity:1;"><g transform="translate(756.533605, 375.848135)"><path style="stroke:none" d="M 83.84375 -44.71875 C 86.1875 -43.425781 87.59375 -41.46875 88.0625 -38.84375 C 88.539062 -36.226562 88 -33.503906 86.4375 -30.671875 C 84.769531 -27.640625 82.691406 -25.59375 80.203125 -24.53125 C 77.710938 -23.476562 75.195312 -23.648438 72.65625 -25.046875 C 71.476562 -25.691406 70.582031 -26.503906 69.96875 -27.484375 C 69.363281 -28.460938 68.664062 -29.738281 67.875 -31.3125 C 66.726562 -33.613281 65.710938 -35.007812 64.828125 -35.5 C 63.265625 -36.351562 61.242188 -35.800781 58.765625 -33.84375 C 56.285156 -31.894531 54.15625 -29.300781 52.375 -26.0625 L 35.59375 4.46875 C 33.8125 7.695312 33.179688 10.34375 33.703125 12.40625 C 34.222656 14.476562 36.148438 16.429688 39.484375 18.265625 L 38.03125 20.90625 L 1.609375 0.890625 L 3.0625 -1.75 C 8.0625 0.988281 12.175781 -0.578125 15.40625 -6.453125 L 40.265625 -51.671875 C 43.429688 -57.441406 42.546875 -61.75 37.609375 -64.59375 L 39.0625 -67.234375 L 66.671875 -52.0625 L 59.96875 -39.875 L 60.25 -39.71875 C 69.90625 -46.382812 77.769531 -48.050781 83.84375 -44.71875 Z M 83.84375 -44.71875 "/></g></g><g style="fill:#ffffff;fill-opacity:1;"><g transform="translate(217.18035, 418.73402)"><path style="stroke:none" d="M 17.109375 -26.8125 L 20.640625 -26.8125 C 23.941406 -26.8125 26.410156 -27.460938 28.046875 -28.765625 C 29.691406 -30.066406 30.515625 -31.96875 30.515625 -34.46875 C 30.515625 -36.976562 29.828125 -38.832031 28.453125 -40.03125 C 27.078125 -41.238281 24.925781 -41.84375 22 -41.84375 L 17.109375 -41.84375 Z M 41.359375 -34.84375 C 41.359375 -29.394531 39.65625 -25.226562 36.25 -22.34375 C 32.84375 -19.457031 28 -18.015625 21.71875 -18.015625 L 17.109375 -18.015625 L 17.109375 0 L 6.375 0 L 6.375 -50.640625 L 22.546875 -50.640625 C 28.691406 -50.640625 33.363281 -49.316406 36.5625 -46.671875 C 39.757812 -44.023438 41.359375 -40.082031 41.359375 -34.84375 Z M 41.359375 -34.84375 "/></g></g><g style="fill:#ffffff;fill-opacity:1;"><g transform="translate(279.389772, 418.73402)"><path style="stroke:none" d="M 6.375 0 L 6.375 -50.640625 L 17.109375 -50.640625 L 17.109375 0 Z M 6.375 0 "/></g></g><g style="fill:#ffffff;fill-opacity:1;"><g transform="translate(320.539453, 418.73402)"><path style="stroke:none" d="M 36.265625 -14.0625 C 36.265625 -9.488281 34.617188 -5.882812 31.328125 -3.25 C 28.035156 -0.625 23.457031 0.6875 17.59375 0.6875 C 12.1875 0.6875 7.40625 -0.328125 3.25 -2.359375 L 3.25 -12.328125 C 6.664062 -10.804688 9.554688 -9.734375 11.921875 -9.109375 C 14.296875 -8.484375 16.460938 -8.171875 18.421875 -8.171875 C 20.773438 -8.171875 22.582031 -8.617188 23.84375 -9.515625 C 25.101562 -10.421875 25.734375 -11.765625 25.734375 -13.546875 C 25.734375 -14.535156 25.457031 -15.414062 24.90625 -16.1875 C 24.351562 -16.96875 23.539062 -17.710938 22.46875 -18.421875 C 21.394531 -19.140625 19.207031 -20.285156 15.90625 -21.859375 C 12.800781 -23.304688 10.472656 -24.703125 8.921875 -26.046875 C 7.378906 -27.390625 6.144531 -28.945312 5.21875 -30.71875 C 4.300781 -32.5 3.84375 -34.578125 3.84375 -36.953125 C 3.84375 -41.429688 5.359375 -44.953125 8.390625 -47.515625 C 11.429688 -50.085938 15.628906 -51.375 20.984375 -51.375 C 23.617188 -51.375 26.128906 -51.0625 28.515625 -50.4375 C 30.910156 -49.8125 33.410156 -48.929688 36.015625 -47.796875 L 32.5625 -39.453125 C 29.851562 -40.554688 27.613281 -41.328125 25.84375 -41.765625 C 24.082031 -42.210938 22.347656 -42.4375 20.640625 -42.4375 C 18.609375 -42.4375 17.050781 -41.960938 15.96875 -41.015625 C 14.882812 -40.066406 14.34375 -38.828125 14.34375 -37.296875 C 14.34375 -36.359375 14.5625 -35.535156 15 -34.828125 C 15.4375 -34.117188 16.132812 -33.4375 17.09375 -32.78125 C 18.050781 -32.125 20.320312 -30.941406 23.90625 -29.234375 C 28.632812 -26.972656 31.875 -24.703125 33.625 -22.421875 C 35.382812 -20.148438 36.265625 -17.363281 36.265625 -14.0625 Z M 36.265625 -14.0625 "/></g></g><g style="fill:#ffffff;fill-opacity:1;"><g transform="translate(377.276114, 418.73402)"><path style="stroke:none" d="M 27.890625 -42.4375 C 23.847656 -42.4375 20.71875 -40.914062 18.5 -37.875 C 16.28125 -34.84375 15.171875 -30.613281 15.171875 -25.1875 C 15.171875 -13.894531 19.410156 -8.25 27.890625 -8.25 C 31.441406 -8.25 35.742188 -9.132812 40.796875 -10.90625 L 40.796875 -1.90625 C 36.640625 -0.175781 32 0.6875 26.875 0.6875 C 19.507812 0.6875 13.875 -1.546875 9.96875 -6.015625 C 6.070312 -10.484375 4.125 -16.894531 4.125 -25.25 C 4.125 -30.507812 5.082031 -35.117188 7 -39.078125 C 8.914062 -43.046875 11.664062 -46.085938 15.25 -48.203125 C 18.84375 -50.316406 23.054688 -51.375 27.890625 -51.375 C 32.804688 -51.375 37.742188 -50.179688 42.703125 -47.796875 L 39.25 -39.078125 C 37.351562 -39.972656 35.445312 -40.753906 33.53125 -41.421875 C 31.613281 -42.097656 29.734375 -42.4375 27.890625 -42.4375 Z M 27.890625 -42.4375 "/></g></g><g style="fill:#ffffff;fill-opacity:1;"><g transform="translate(440.143642, 418.73402)"><path style="stroke:none" d="M 6.375 0 L 6.375 -50.640625 L 17.109375 -50.640625 L 17.109375 0 Z M 6.375 0 "/></g></g><g style="fill:#ffffff;fill-opacity:1;"><g transform="translate(481.293335, 418.73402)"><path style="stroke:none" d="M 51.296875 0 L 37.65625 0 L 15.625 -38.3125 L 15.3125 -38.3125 C 15.75 -31.539062 15.96875 -26.710938 15.96875 -23.828125 L 15.96875 0 L 6.375 0 L 6.375 -50.640625 L 19.921875 -50.640625 L 41.90625 -12.71875 L 42.15625 -12.71875 C 41.8125 -19.289062 41.640625 -23.941406 41.640625 -26.671875 L 41.640625 -50.640625 L 51.296875 -50.640625 Z M 51.296875 0 "/></g></g><g style="fill:#ffffff;fill-opacity:1;"><g transform="translate(556.630457, 418.73402)"><path style="stroke:none" d="M 37.375 0 L 33.703125 -12.046875 L 15.234375 -12.046875 L 11.5625 0 L 0 0 L 17.875 -50.84375 L 31 -50.84375 L 48.9375 0 Z M 31.140625 -21.0625 C 27.742188 -31.976562 25.832031 -38.148438 25.40625 -39.578125 C 24.976562 -41.015625 24.671875 -42.148438 24.484375 -42.984375 C 23.722656 -40.023438 21.539062 -32.71875 17.9375 -21.0625 Z M 31.140625 -21.0625 "/></g></g><g style="fill:#ffffff;fill-opacity:1;"><g transform="translate(623.238848, 418.73402)"><path style="stroke:none" d="M 36.265625 -14.0625 C 36.265625 -9.488281 34.617188 -5.882812 31.328125 -3.25 C 28.035156 -0.625 23.457031 0.6875 17.59375 0.6875 C 12.1875 0.6875 7.40625 -0.328125 3.25 -2.359375 L 3.25 -12.328125 C 6.664062 -10.804688 9.554688 -9.734375 11.921875 -9.109375 C 14.296875 -8.484375 16.460938 -8.171875 18.421875 -8.171875 C 20.773438 -8.171875 22.582031 -8.617188 23.84375 -9.515625 C 25.101562 -10.421875 25.734375 -11.765625 25.734375 -13.546875 C 25.734375 -14.535156 25.457031 -15.414062 24.90625 -16.1875 C 24.351562 -16.96875 23.539062 -17.710938 22.46875 -18.421875 C 21.394531 -19.140625 19.207031 -20.285156 15.90625 -21.859375 C 12.800781 -23.304688 10.472656 -24.703125 8.921875 -26.046875 C 7.378906 -27.390625 6.144531 -28.945312 5.21875 -30.71875 C 4.300781 -32.5 3.84375 -34.578125 3.84375 -36.953125 C 3.84375 -41.429688 5.359375 -44.953125 8.390625 -47.515625 C 11.429688 -50.085938 15.628906 -51.375 20.984375 -51.375 C 23.617188 -51.375 26.128906 -51.0625 28.515625 -50.4375 C 30.910156 -49.8125 33.410156 -48.929688 36.015625 -47.796875 L 32.5625 -39.453125 C 29.851562 -40.554688 27.613281 -41.328125 25.84375 -41.765625 C 24.082031 -42.210938 22.347656 -42.4375 20.640625 -42.4375 C 18.609375 -42.4375 17.050781 -41.960938 15.96875 -41.015625 C 14.882812 -40.066406 14.34375 -38.828125 14.34375 -37.296875 C 14.34375 -36.359375 14.5625 -35.535156 15 -34.828125 C 15.4375 -34.117188 16.132812 -33.4375 17.09375 -32.78125 C 18.050781 -32.125 20.320312 -30.941406 23.90625 -29.234375 C 28.632812 -26.972656 31.875 -24.703125 33.625 -22.421875 C 35.382812 -20.148438 36.265625 -17.363281 36.265625 -14.0625 Z M 36.265625 -14.0625 "/></g></g></g></svg>